<mxfile host="app.diagrams.net" modified="2023-09-20T01:36:19.957Z" agent="Mozilla/5.0 (Windows NT 10.0; Win64; x64) AppleWebKit/537.36 (KHTML, like Gecko) Chrome/116.0.0.0 Safari/537.36" etag="Q6ouXQr2qR-kpRy7EUSn" version="21.7.5" type="github">
  <diagram name="Page-1" id="VIYhORaKEfhmIQVhgsaw">
    <mxGraphModel dx="1247" dy="659" grid="1" gridSize="10" guides="1" tooltips="1" connect="1" arrows="1" fold="1" page="1" pageScale="1" pageWidth="827" pageHeight="1169" math="0" shadow="0">
      <root>
        <mxCell id="0" />
        <mxCell id="1" parent="0" />
        <mxCell id="52c86dPeq3qlj9z_Wnzl-1" value="&lt;p style=&quot;margin: 0px 0px 10px 30px; color: rgb(101, 101, 101); font-family: &amp;quot;Source Sans 3&amp;quot;, sans-serif; text-align: left; background-color: rgb(255, 255, 255); font-size: 14px;&quot; dir=&quot;ltr&quot;&gt;&lt;strong&gt;Diseña una base de datos sobre proveedores, disponemos de la siguiente información:&lt;/strong&gt;&lt;/p&gt;&lt;p style=&quot;margin: 0px 0px 10px 30px; color: rgb(101, 101, 101); font-family: &amp;quot;Source Sans 3&amp;quot;, sans-serif; text-align: left; background-color: rgb(255, 255, 255); font-size: 14px;&quot; dir=&quot;ltr&quot;&gt;&lt;/p&gt;&lt;p style=&quot;margin: 0px 0px 10px 30px; color: rgb(101, 101, 101); font-family: &amp;quot;Source Sans 3&amp;quot;, sans-serif; text-align: left; background-color: rgb(255, 255, 255); font-size: 14px;&quot; dir=&quot;ltr&quot;&gt;&lt;strong&gt;Cadena editorial:&lt;/strong&gt;&lt;/p&gt;&lt;ul style=&quot;padding: 0px; margin: 0px 0px 10px 25px; color: rgb(101, 101, 101); font-family: &amp;quot;Source Sans 3&amp;quot;, sans-serif; text-align: left; background-color: rgb(255, 255, 255);&quot; id=&quot;yui_3_17_2_1_1695168816416_113&quot;&gt;&lt;li style=&quot;line-height: 20px; list-style-type: none;&quot; id=&quot;yui_3_17_2_1_1695168816416_112&quot;&gt;&lt;ul style=&quot;padding: 0px; margin: 0px 0px 0px 25px;&quot; id=&quot;yui_3_17_2_1_1695168816416_111&quot;&gt;&lt;li style=&quot;line-height: 20px;&quot; aria-level=&quot;1&quot; dir=&quot;ltr&quot;&gt;&lt;p style=&quot;margin: 0px 0px 10px;&quot; role=&quot;presentation&quot; dir=&quot;ltr&quot;&gt;&lt;span style=&quot;font-size: 14px;&quot;&gt;La editorial tiene varias &lt;/span&gt;&lt;b style=&quot;&quot;&gt;&lt;font style=&quot;font-size: 18px;&quot;&gt;sucursales&lt;/font&gt;&lt;/b&gt;&lt;span style=&quot;font-size: 14px;&quot;&gt;, con su domicilio, teléfono y un &lt;u&gt;código de sucursal&lt;/u&gt;.&lt;/span&gt;&lt;/p&gt;&lt;/li&gt;&lt;li style=&quot;line-height: 20px;&quot; aria-level=&quot;1&quot; dir=&quot;ltr&quot;&gt;&lt;p style=&quot;margin: 0px 0px 10px;&quot; role=&quot;presentation&quot; dir=&quot;ltr&quot;&gt;&lt;span style=&quot;font-size: 14px;&quot;&gt;Cada &lt;/span&gt;&lt;font style=&quot;font-size: 18px;&quot;&gt;&lt;b&gt;sucursal&lt;/b&gt; &lt;/font&gt;&lt;span style=&quot;font-size: 14px;&quot;&gt;tiene varios &lt;/span&gt;&lt;b style=&quot;&quot;&gt;&lt;font style=&quot;font-size: 18px;&quot;&gt;empleados&lt;/font&gt;&lt;/b&gt;&lt;span style=&quot;font-size: 14px;&quot;&gt;, de los cuales tendremos su nombre, apellidos, &lt;u&gt;NIF &lt;/u&gt;y teléfono. Un empleado trabaja en una única &lt;/span&gt;&lt;font style=&quot;font-size: 18px;&quot;&gt;&lt;b&gt;sucursal&lt;/b&gt;&lt;/font&gt;&lt;span style=&quot;font-size: 14px;&quot;&gt;.&lt;/span&gt;&lt;/p&gt;&lt;/li&gt;&lt;li style=&quot;line-height: 20px;&quot; aria-level=&quot;1&quot; dir=&quot;ltr&quot;&gt;&lt;p style=&quot;margin: 0px 0px 10px;&quot; role=&quot;presentation&quot; dir=&quot;ltr&quot;&gt;&lt;span style=&quot;font-size: 14px;&quot;&gt;En cada &lt;/span&gt;&lt;font style=&quot;font-size: 18px;&quot;&gt;&lt;b&gt;sucursal &lt;/b&gt;&lt;/font&gt;&lt;span style=&quot;font-size: 14px;&quot;&gt;se publican varias revistas, de las que almacenaremos su título, &lt;u&gt;número de registro&lt;/u&gt;, periodicidad y tipo.&lt;/span&gt;&lt;/p&gt;&lt;/li&gt;&lt;li style=&quot;line-height: 20px;&quot; aria-level=&quot;1&quot; dir=&quot;ltr&quot;&gt;&lt;p style=&quot;margin: 0px 0px 10px;&quot; role=&quot;presentation&quot; dir=&quot;ltr&quot;&gt;&lt;span style=&quot;font-size: 14px;&quot;&gt;Una &lt;/span&gt;&lt;b style=&quot;&quot;&gt;&lt;font style=&quot;font-size: 18px;&quot;&gt;revista &lt;/font&gt;&lt;/b&gt;&lt;span style=&quot;font-size: 14px;&quot;&gt;puede ser publicada por varias &lt;/span&gt;&lt;font style=&quot;font-size: 18px;&quot;&gt;&lt;b&gt;sucursales&lt;/b&gt;&lt;/font&gt;&lt;span style=&quot;font-size: 14px;&quot;&gt;.&lt;/span&gt;&lt;/p&gt;&lt;/li&gt;&lt;li style=&quot;line-height: 20px;&quot; id=&quot;yui_3_17_2_1_1695168816416_123&quot; aria-level=&quot;1&quot; dir=&quot;ltr&quot;&gt;&lt;p style=&quot;margin: 0px 0px 10px;&quot; id=&quot;yui_3_17_2_1_1695168816416_122&quot; role=&quot;presentation&quot; dir=&quot;ltr&quot;&gt;&lt;span style=&quot;font-size: 14px;&quot;&gt;La editorial tiene periodistas (que no trabajan en las sucursales) que pueden escribir &lt;/span&gt;&lt;b style=&quot;&quot;&gt;&lt;font style=&quot;font-size: 18px;&quot;&gt;artículos &lt;/font&gt;&lt;/b&gt;&lt;span style=&quot;font-size: 14px;&quot;&gt;para varias revistas. Almacenaremos los mismos datos que para los empleados, añadiendo su&amp;nbsp;&lt;/span&gt;&lt;a style=&quot;font-size: 14px; color: rgb(255, 102, 0);&quot; href=&quot;http://187.217.4.141/~edc/moodle/mod/choice/view.php?id=5516&quot; title=&quot;Especialidad&quot; class=&quot;autolink&quot;&gt;especialidad&lt;/a&gt;&lt;span style=&quot;font-size: 14px;&quot;&gt;.&lt;/span&gt;&lt;/p&gt;&lt;/li&gt;&lt;/ul&gt;&lt;/li&gt;&lt;/ul&gt;" style="rounded=1;whiteSpace=wrap;html=1;" vertex="1" parent="1">
          <mxGeometry x="80" y="10" width="620" height="350" as="geometry" />
        </mxCell>
        <mxCell id="52c86dPeq3qlj9z_Wnzl-6" style="edgeStyle=orthogonalEdgeStyle;rounded=0;orthogonalLoop=1;jettySize=auto;html=1;entryX=0.5;entryY=0;entryDx=0;entryDy=0;" edge="1" parent="1" source="52c86dPeq3qlj9z_Wnzl-2" target="52c86dPeq3qlj9z_Wnzl-5">
          <mxGeometry relative="1" as="geometry" />
        </mxCell>
        <mxCell id="52c86dPeq3qlj9z_Wnzl-17" style="edgeStyle=orthogonalEdgeStyle;rounded=0;orthogonalLoop=1;jettySize=auto;html=1;entryX=0;entryY=0.5;entryDx=0;entryDy=0;" edge="1" parent="1" source="52c86dPeq3qlj9z_Wnzl-2" target="52c86dPeq3qlj9z_Wnzl-16">
          <mxGeometry relative="1" as="geometry" />
        </mxCell>
        <mxCell id="52c86dPeq3qlj9z_Wnzl-37" style="edgeStyle=orthogonalEdgeStyle;rounded=0;orthogonalLoop=1;jettySize=auto;html=1;entryX=1;entryY=0.5;entryDx=0;entryDy=0;" edge="1" parent="1" source="52c86dPeq3qlj9z_Wnzl-2" target="52c86dPeq3qlj9z_Wnzl-28">
          <mxGeometry relative="1" as="geometry" />
        </mxCell>
        <mxCell id="52c86dPeq3qlj9z_Wnzl-2" value="sucursal" style="whiteSpace=wrap;html=1;align=center;fillColor=#E6D0DE;" vertex="1" parent="1">
          <mxGeometry x="270" y="640" width="100" height="40" as="geometry" />
        </mxCell>
        <mxCell id="52c86dPeq3qlj9z_Wnzl-20" style="edgeStyle=orthogonalEdgeStyle;rounded=0;orthogonalLoop=1;jettySize=auto;html=1;entryX=1;entryY=0.5;entryDx=0;entryDy=0;" edge="1" parent="1" source="52c86dPeq3qlj9z_Wnzl-3" target="52c86dPeq3qlj9z_Wnzl-16">
          <mxGeometry relative="1" as="geometry" />
        </mxCell>
        <mxCell id="52c86dPeq3qlj9z_Wnzl-76" style="edgeStyle=orthogonalEdgeStyle;rounded=0;orthogonalLoop=1;jettySize=auto;html=1;entryX=0.5;entryY=1;entryDx=0;entryDy=0;" edge="1" parent="1" source="52c86dPeq3qlj9z_Wnzl-3" target="52c86dPeq3qlj9z_Wnzl-74">
          <mxGeometry relative="1" as="geometry" />
        </mxCell>
        <mxCell id="52c86dPeq3qlj9z_Wnzl-3" value="revista" style="rounded=1;arcSize=10;whiteSpace=wrap;html=1;align=center;fillColor=#7EA6E0;" vertex="1" parent="1">
          <mxGeometry x="650" y="640" width="100" height="40" as="geometry" />
        </mxCell>
        <mxCell id="52c86dPeq3qlj9z_Wnzl-14" style="edgeStyle=orthogonalEdgeStyle;rounded=0;orthogonalLoop=1;jettySize=auto;html=1;entryX=0.5;entryY=1;entryDx=0;entryDy=0;" edge="1" parent="1" source="52c86dPeq3qlj9z_Wnzl-4" target="52c86dPeq3qlj9z_Wnzl-5">
          <mxGeometry relative="1" as="geometry" />
        </mxCell>
        <mxCell id="52c86dPeq3qlj9z_Wnzl-4" value="empleados" style="rounded=1;arcSize=10;whiteSpace=wrap;html=1;align=center;fillColor=#B5739D;" vertex="1" parent="1">
          <mxGeometry x="270" y="920" width="100" height="40" as="geometry" />
        </mxCell>
        <mxCell id="52c86dPeq3qlj9z_Wnzl-5" value="tiene" style="shape=rhombus;perimeter=rhombusPerimeter;whiteSpace=wrap;html=1;align=center;" vertex="1" parent="1">
          <mxGeometry x="260" y="780" width="120" height="60" as="geometry" />
        </mxCell>
        <mxCell id="52c86dPeq3qlj9z_Wnzl-7" value="1" style="text;strokeColor=none;fillColor=none;spacingLeft=4;spacingRight=4;overflow=hidden;rotatable=0;points=[[0,0.5],[1,0.5]];portConstraint=eastwest;fontSize=12;whiteSpace=wrap;html=1;" vertex="1" parent="1">
          <mxGeometry x="320" y="890" width="40" height="30" as="geometry" />
        </mxCell>
        <mxCell id="52c86dPeq3qlj9z_Wnzl-8" value="N" style="text;strokeColor=none;fillColor=none;spacingLeft=4;spacingRight=4;overflow=hidden;rotatable=0;points=[[0,0.5],[1,0.5]];portConstraint=eastwest;fontSize=12;whiteSpace=wrap;html=1;" vertex="1" parent="1">
          <mxGeometry x="320" y="750" width="40" height="30" as="geometry" />
        </mxCell>
        <mxCell id="52c86dPeq3qlj9z_Wnzl-10" value="1" style="text;strokeColor=none;fillColor=none;spacingLeft=4;spacingRight=4;overflow=hidden;rotatable=0;points=[[0,0.5],[1,0.5]];portConstraint=eastwest;fontSize=12;whiteSpace=wrap;html=1;" vertex="1" parent="1">
          <mxGeometry x="320" y="690" width="40" height="30" as="geometry" />
        </mxCell>
        <mxCell id="52c86dPeq3qlj9z_Wnzl-11" value="N" style="text;strokeColor=none;fillColor=none;spacingLeft=4;spacingRight=4;overflow=hidden;rotatable=0;points=[[0,0.5],[1,0.5]];portConstraint=eastwest;fontSize=12;whiteSpace=wrap;html=1;" vertex="1" parent="1">
          <mxGeometry x="560" y="620" width="40" height="30" as="geometry" />
        </mxCell>
        <mxCell id="52c86dPeq3qlj9z_Wnzl-13" value="1" style="text;strokeColor=none;fillColor=none;spacingLeft=4;spacingRight=4;overflow=hidden;rotatable=0;points=[[0,0.5],[1,0.5]];portConstraint=eastwest;fontSize=12;whiteSpace=wrap;html=1;" vertex="1" parent="1">
          <mxGeometry x="170" y="450" width="40" height="30" as="geometry" />
        </mxCell>
        <mxCell id="52c86dPeq3qlj9z_Wnzl-15" value="1" style="text;strokeColor=none;fillColor=none;spacingLeft=4;spacingRight=4;overflow=hidden;rotatable=0;points=[[0,0.5],[1,0.5]];portConstraint=eastwest;fontSize=12;whiteSpace=wrap;html=1;" vertex="1" parent="1">
          <mxGeometry x="320" y="840" width="40" height="30" as="geometry" />
        </mxCell>
        <mxCell id="52c86dPeq3qlj9z_Wnzl-16" value="publica" style="shape=rhombus;perimeter=rhombusPerimeter;whiteSpace=wrap;html=1;align=center;" vertex="1" parent="1">
          <mxGeometry x="450" y="630" width="120" height="60" as="geometry" />
        </mxCell>
        <mxCell id="52c86dPeq3qlj9z_Wnzl-18" value="1" style="text;strokeColor=none;fillColor=none;spacingLeft=4;spacingRight=4;overflow=hidden;rotatable=0;points=[[0,0.5],[1,0.5]];portConstraint=eastwest;fontSize=12;whiteSpace=wrap;html=1;" vertex="1" parent="1">
          <mxGeometry x="374" y="620" width="40" height="30" as="geometry" />
        </mxCell>
        <mxCell id="52c86dPeq3qlj9z_Wnzl-19" value="N" style="text;strokeColor=none;fillColor=none;spacingLeft=4;spacingRight=4;overflow=hidden;rotatable=0;points=[[0,0.5],[1,0.5]];portConstraint=eastwest;fontSize=12;whiteSpace=wrap;html=1;" vertex="1" parent="1">
          <mxGeometry x="440" y="620" width="40" height="30" as="geometry" />
        </mxCell>
        <mxCell id="52c86dPeq3qlj9z_Wnzl-21" value="1" style="text;strokeColor=none;fillColor=none;spacingLeft=4;spacingRight=4;overflow=hidden;rotatable=0;points=[[0,0.5],[1,0.5]];portConstraint=eastwest;fontSize=12;whiteSpace=wrap;html=1;" vertex="1" parent="1">
          <mxGeometry x="710" y="520" width="40" height="30" as="geometry" />
        </mxCell>
        <mxCell id="52c86dPeq3qlj9z_Wnzl-25" value="N" style="text;strokeColor=none;fillColor=none;spacingLeft=4;spacingRight=4;overflow=hidden;rotatable=0;points=[[0,0.5],[1,0.5]];portConstraint=eastwest;fontSize=12;whiteSpace=wrap;html=1;" vertex="1" parent="1">
          <mxGeometry x="630" y="620" width="40" height="30" as="geometry" />
        </mxCell>
        <mxCell id="52c86dPeq3qlj9z_Wnzl-30" style="edgeStyle=orthogonalEdgeStyle;rounded=0;orthogonalLoop=1;jettySize=auto;html=1;entryX=0;entryY=0.5;entryDx=0;entryDy=0;" edge="1" parent="1" source="52c86dPeq3qlj9z_Wnzl-27" target="52c86dPeq3qlj9z_Wnzl-29">
          <mxGeometry relative="1" as="geometry" />
        </mxCell>
        <mxCell id="52c86dPeq3qlj9z_Wnzl-33" style="edgeStyle=orthogonalEdgeStyle;rounded=0;orthogonalLoop=1;jettySize=auto;html=1;entryX=0.5;entryY=0;entryDx=0;entryDy=0;" edge="1" parent="1" source="52c86dPeq3qlj9z_Wnzl-27" target="52c86dPeq3qlj9z_Wnzl-28">
          <mxGeometry relative="1" as="geometry" />
        </mxCell>
        <mxCell id="52c86dPeq3qlj9z_Wnzl-27" value="editorial" style="rounded=1;arcSize=10;whiteSpace=wrap;html=1;align=center;" vertex="1" parent="1">
          <mxGeometry x="70" y="480" width="100" height="40" as="geometry" />
        </mxCell>
        <mxCell id="52c86dPeq3qlj9z_Wnzl-28" value="tiene" style="shape=rhombus;perimeter=rhombusPerimeter;whiteSpace=wrap;html=1;align=center;" vertex="1" parent="1">
          <mxGeometry x="60" y="630" width="120" height="60" as="geometry" />
        </mxCell>
        <mxCell id="52c86dPeq3qlj9z_Wnzl-29" value="tiene" style="shape=rhombus;perimeter=rhombusPerimeter;whiteSpace=wrap;html=1;align=center;" vertex="1" parent="1">
          <mxGeometry x="260" y="470" width="120" height="60" as="geometry" />
        </mxCell>
        <mxCell id="52c86dPeq3qlj9z_Wnzl-34" value="1" style="text;strokeColor=none;fillColor=none;spacingLeft=4;spacingRight=4;overflow=hidden;rotatable=0;points=[[0,0.5],[1,0.5]];portConstraint=eastwest;fontSize=12;whiteSpace=wrap;html=1;" vertex="1" parent="1">
          <mxGeometry x="710" y="610" width="40" height="30" as="geometry" />
        </mxCell>
        <mxCell id="52c86dPeq3qlj9z_Wnzl-35" value="1" style="text;strokeColor=none;fillColor=none;spacingLeft=4;spacingRight=4;overflow=hidden;rotatable=0;points=[[0,0.5],[1,0.5]];portConstraint=eastwest;fontSize=12;whiteSpace=wrap;html=1;" vertex="1" parent="1">
          <mxGeometry x="130" y="520" width="40" height="30" as="geometry" />
        </mxCell>
        <mxCell id="52c86dPeq3qlj9z_Wnzl-36" value="N" style="text;strokeColor=none;fillColor=none;spacingLeft=4;spacingRight=4;overflow=hidden;rotatable=0;points=[[0,0.5],[1,0.5]];portConstraint=eastwest;fontSize=12;whiteSpace=wrap;html=1;" vertex="1" parent="1">
          <mxGeometry x="130" y="590" width="40" height="30" as="geometry" />
        </mxCell>
        <mxCell id="52c86dPeq3qlj9z_Wnzl-38" value="1" style="text;strokeColor=none;fillColor=none;spacingLeft=4;spacingRight=4;overflow=hidden;rotatable=0;points=[[0,0.5],[1,0.5]];portConstraint=eastwest;fontSize=12;whiteSpace=wrap;html=1;" vertex="1" parent="1">
          <mxGeometry x="240" y="620" width="40" height="30" as="geometry" />
        </mxCell>
        <mxCell id="52c86dPeq3qlj9z_Wnzl-40" value="1" style="text;strokeColor=none;fillColor=none;spacingLeft=4;spacingRight=4;overflow=hidden;rotatable=0;points=[[0,0.5],[1,0.5]];portConstraint=eastwest;fontSize=12;whiteSpace=wrap;html=1;" vertex="1" parent="1">
          <mxGeometry x="170" y="620" width="40" height="30" as="geometry" />
        </mxCell>
        <mxCell id="52c86dPeq3qlj9z_Wnzl-45" style="edgeStyle=orthogonalEdgeStyle;rounded=0;orthogonalLoop=1;jettySize=auto;html=1;entryX=1;entryY=0.5;entryDx=0;entryDy=0;" edge="1" parent="1" source="52c86dPeq3qlj9z_Wnzl-41" target="52c86dPeq3qlj9z_Wnzl-29">
          <mxGeometry relative="1" as="geometry" />
        </mxCell>
        <mxCell id="52c86dPeq3qlj9z_Wnzl-78" style="edgeStyle=orthogonalEdgeStyle;rounded=0;orthogonalLoop=1;jettySize=auto;html=1;entryX=0;entryY=0.5;entryDx=0;entryDy=0;" edge="1" parent="1" source="52c86dPeq3qlj9z_Wnzl-41" target="52c86dPeq3qlj9z_Wnzl-74">
          <mxGeometry relative="1" as="geometry" />
        </mxCell>
        <mxCell id="52c86dPeq3qlj9z_Wnzl-41" value="Periodistas" style="rounded=1;arcSize=10;whiteSpace=wrap;html=1;align=center;fillColor=#D5E8D4;" vertex="1" parent="1">
          <mxGeometry x="460" y="480" width="100" height="40" as="geometry" />
        </mxCell>
        <mxCell id="52c86dPeq3qlj9z_Wnzl-43" value="N" style="text;strokeColor=none;fillColor=none;spacingLeft=4;spacingRight=4;overflow=hidden;rotatable=0;points=[[0,0.5],[1,0.5]];portConstraint=eastwest;fontSize=12;whiteSpace=wrap;html=1;" vertex="1" parent="1">
          <mxGeometry x="240" y="450" width="40" height="30" as="geometry" />
        </mxCell>
        <mxCell id="52c86dPeq3qlj9z_Wnzl-44" value="1" style="text;strokeColor=none;fillColor=none;spacingLeft=4;spacingRight=4;overflow=hidden;rotatable=0;points=[[0,0.5],[1,0.5]];portConstraint=eastwest;fontSize=12;whiteSpace=wrap;html=1;" vertex="1" parent="1">
          <mxGeometry x="430" y="450" width="40" height="30" as="geometry" />
        </mxCell>
        <mxCell id="52c86dPeq3qlj9z_Wnzl-46" value="1" style="text;strokeColor=none;fillColor=none;spacingLeft=4;spacingRight=4;overflow=hidden;rotatable=0;points=[[0,0.5],[1,0.5]];portConstraint=eastwest;fontSize=12;whiteSpace=wrap;html=1;" vertex="1" parent="1">
          <mxGeometry x="360" y="450" width="40" height="30" as="geometry" />
        </mxCell>
        <mxCell id="52c86dPeq3qlj9z_Wnzl-53" style="edgeStyle=orthogonalEdgeStyle;rounded=0;orthogonalLoop=1;jettySize=auto;html=1;entryX=0.595;entryY=0.987;entryDx=0;entryDy=0;entryPerimeter=0;" edge="1" parent="1" source="52c86dPeq3qlj9z_Wnzl-49" target="52c86dPeq3qlj9z_Wnzl-3">
          <mxGeometry relative="1" as="geometry" />
        </mxCell>
        <mxCell id="52c86dPeq3qlj9z_Wnzl-49" value="Numero de&amp;nbsp;&lt;br&gt;registro" style="ellipse;whiteSpace=wrap;html=1;align=center;fontStyle=4;fillColor=#7EA6E0;" vertex="1" parent="1">
          <mxGeometry x="660" y="750" width="100" height="40" as="geometry" />
        </mxCell>
        <mxCell id="52c86dPeq3qlj9z_Wnzl-52" style="edgeStyle=orthogonalEdgeStyle;rounded=0;orthogonalLoop=1;jettySize=auto;html=1;entryX=0;entryY=1;entryDx=0;entryDy=0;" edge="1" parent="1" source="52c86dPeq3qlj9z_Wnzl-50" target="52c86dPeq3qlj9z_Wnzl-2">
          <mxGeometry relative="1" as="geometry" />
        </mxCell>
        <mxCell id="52c86dPeq3qlj9z_Wnzl-50" value="codigo de&amp;nbsp;&lt;br&gt;sucursal" style="ellipse;whiteSpace=wrap;html=1;align=center;fontStyle=4;fillColor=#E6D0DE;" vertex="1" parent="1">
          <mxGeometry x="190" y="720" width="100" height="40" as="geometry" />
        </mxCell>
        <mxCell id="52c86dPeq3qlj9z_Wnzl-54" style="edgeStyle=orthogonalEdgeStyle;rounded=0;orthogonalLoop=1;jettySize=auto;html=1;" edge="1" parent="1" source="52c86dPeq3qlj9z_Wnzl-51" target="52c86dPeq3qlj9z_Wnzl-4">
          <mxGeometry relative="1" as="geometry" />
        </mxCell>
        <mxCell id="52c86dPeq3qlj9z_Wnzl-51" value="NIF" style="ellipse;whiteSpace=wrap;html=1;align=center;fontStyle=4;fillColor=#B5739D;" vertex="1" parent="1">
          <mxGeometry x="280" y="1030" width="100" height="40" as="geometry" />
        </mxCell>
        <mxCell id="52c86dPeq3qlj9z_Wnzl-55" value="N:1" style="text;strokeColor=none;fillColor=none;spacingLeft=4;spacingRight=4;overflow=hidden;rotatable=0;points=[[0,0.5],[1,0.5]];portConstraint=eastwest;fontSize=12;whiteSpace=wrap;html=1;" vertex="1" parent="1">
          <mxGeometry x="20" y="645" width="40" height="30" as="geometry" />
        </mxCell>
        <mxCell id="52c86dPeq3qlj9z_Wnzl-56" value="N:1" style="text;strokeColor=none;fillColor=none;spacingLeft=4;spacingRight=4;overflow=hidden;rotatable=0;points=[[0,0.5],[1,0.5]];portConstraint=eastwest;fontSize=12;whiteSpace=wrap;html=1;" vertex="1" parent="1">
          <mxGeometry x="310" y="430" width="40" height="30" as="geometry" />
        </mxCell>
        <mxCell id="52c86dPeq3qlj9z_Wnzl-57" value="N:M" style="text;strokeColor=none;fillColor=none;spacingLeft=4;spacingRight=4;overflow=hidden;rotatable=0;points=[[0,0.5],[1,0.5]];portConstraint=eastwest;fontSize=12;whiteSpace=wrap;html=1;" vertex="1" parent="1">
          <mxGeometry x="490" y="590" width="40" height="30" as="geometry" />
        </mxCell>
        <mxCell id="52c86dPeq3qlj9z_Wnzl-58" value="N:1" style="text;strokeColor=none;fillColor=none;spacingLeft=4;spacingRight=4;overflow=hidden;rotatable=0;points=[[0,0.5],[1,0.5]];portConstraint=eastwest;fontSize=12;whiteSpace=wrap;html=1;" vertex="1" parent="1">
          <mxGeometry x="394" y="795" width="40" height="30" as="geometry" />
        </mxCell>
        <mxCell id="52c86dPeq3qlj9z_Wnzl-63" style="edgeStyle=orthogonalEdgeStyle;rounded=0;orthogonalLoop=1;jettySize=auto;html=1;entryX=0;entryY=1;entryDx=0;entryDy=0;" edge="1" parent="1" source="52c86dPeq3qlj9z_Wnzl-59" target="52c86dPeq3qlj9z_Wnzl-16">
          <mxGeometry relative="1" as="geometry" />
        </mxCell>
        <mxCell id="52c86dPeq3qlj9z_Wnzl-59" value="&lt;span style=&quot;border-bottom: 1px dotted&quot;&gt;codigo de&amp;nbsp;&lt;br&gt;sucursal&lt;br&gt;&lt;/span&gt;" style="ellipse;whiteSpace=wrap;html=1;align=center;fillColor=#E6D0DE;" vertex="1" parent="1">
          <mxGeometry x="410" y="730" width="100" height="40" as="geometry" />
        </mxCell>
        <mxCell id="52c86dPeq3qlj9z_Wnzl-62" style="edgeStyle=orthogonalEdgeStyle;rounded=0;orthogonalLoop=1;jettySize=auto;html=1;entryX=1;entryY=1;entryDx=0;entryDy=0;" edge="1" parent="1" source="52c86dPeq3qlj9z_Wnzl-60" target="52c86dPeq3qlj9z_Wnzl-16">
          <mxGeometry relative="1" as="geometry" />
        </mxCell>
        <mxCell id="52c86dPeq3qlj9z_Wnzl-60" value="&lt;span style=&quot;border-bottom: 1px dotted&quot;&gt;Numero de registro&lt;br&gt;&lt;/span&gt;" style="ellipse;whiteSpace=wrap;html=1;align=center;fillColor=#7EA6E0;" vertex="1" parent="1">
          <mxGeometry x="520" y="730" width="100" height="40" as="geometry" />
        </mxCell>
        <mxCell id="52c86dPeq3qlj9z_Wnzl-65" style="edgeStyle=orthogonalEdgeStyle;rounded=0;orthogonalLoop=1;jettySize=auto;html=1;entryX=0;entryY=0.5;entryDx=0;entryDy=0;" edge="1" parent="1" source="52c86dPeq3qlj9z_Wnzl-64" target="52c86dPeq3qlj9z_Wnzl-4">
          <mxGeometry relative="1" as="geometry" />
        </mxCell>
        <mxCell id="52c86dPeq3qlj9z_Wnzl-64" value="&lt;span style=&quot;border-bottom: 1px dotted&quot;&gt;codigo de&amp;nbsp;&lt;br&gt;sucursal&lt;br&gt;&lt;/span&gt;" style="ellipse;whiteSpace=wrap;html=1;align=center;fillColor=#E6D0DE;" vertex="1" parent="1">
          <mxGeometry x="110" y="920" width="100" height="40" as="geometry" />
        </mxCell>
        <mxCell id="52c86dPeq3qlj9z_Wnzl-71" value="1" style="text;strokeColor=none;fillColor=none;spacingLeft=4;spacingRight=4;overflow=hidden;rotatable=0;points=[[0,0.5],[1,0.5]];portConstraint=eastwest;fontSize=12;whiteSpace=wrap;html=1;" vertex="1" parent="1">
          <mxGeometry x="560" y="460" width="40" height="30" as="geometry" />
        </mxCell>
        <mxCell id="52c86dPeq3qlj9z_Wnzl-72" value="N" style="text;strokeColor=none;fillColor=none;spacingLeft=4;spacingRight=4;overflow=hidden;rotatable=0;points=[[0,0.5],[1,0.5]];portConstraint=eastwest;fontSize=12;whiteSpace=wrap;html=1;" vertex="1" parent="1">
          <mxGeometry x="630" y="460" width="40" height="30" as="geometry" />
        </mxCell>
        <mxCell id="52c86dPeq3qlj9z_Wnzl-74" value="escribir&lt;br&gt;articulos" style="shape=rhombus;perimeter=rhombusPerimeter;whiteSpace=wrap;html=1;align=center;" vertex="1" parent="1">
          <mxGeometry x="640" y="470" width="120" height="60" as="geometry" />
        </mxCell>
        <mxCell id="52c86dPeq3qlj9z_Wnzl-79" value="N:1" style="text;strokeColor=none;fillColor=none;spacingLeft=4;spacingRight=4;overflow=hidden;rotatable=0;points=[[0,0.5],[1,0.5]];portConstraint=eastwest;fontSize=12;whiteSpace=wrap;html=1;" vertex="1" parent="1">
          <mxGeometry x="770" y="485" width="40" height="30" as="geometry" />
        </mxCell>
        <mxCell id="52c86dPeq3qlj9z_Wnzl-87" style="edgeStyle=orthogonalEdgeStyle;rounded=0;orthogonalLoop=1;jettySize=auto;html=1;entryX=0.75;entryY=0;entryDx=0;entryDy=0;" edge="1" parent="1" source="52c86dPeq3qlj9z_Wnzl-80" target="52c86dPeq3qlj9z_Wnzl-2">
          <mxGeometry relative="1" as="geometry" />
        </mxCell>
        <mxCell id="52c86dPeq3qlj9z_Wnzl-80" value="domicilio" style="ellipse;whiteSpace=wrap;html=1;align=center;fillColor=#E6D0DE;" vertex="1" parent="1">
          <mxGeometry x="330" y="565" width="60" height="40" as="geometry" />
        </mxCell>
        <mxCell id="52c86dPeq3qlj9z_Wnzl-86" style="edgeStyle=orthogonalEdgeStyle;rounded=0;orthogonalLoop=1;jettySize=auto;html=1;entryX=0.357;entryY=0.019;entryDx=0;entryDy=0;entryPerimeter=0;" edge="1" parent="1" source="52c86dPeq3qlj9z_Wnzl-81" target="52c86dPeq3qlj9z_Wnzl-2">
          <mxGeometry relative="1" as="geometry" />
        </mxCell>
        <mxCell id="52c86dPeq3qlj9z_Wnzl-81" value="telefono" style="ellipse;whiteSpace=wrap;html=1;align=center;fillColor=#E6D0DE;" vertex="1" parent="1">
          <mxGeometry x="260" y="565" width="60" height="40" as="geometry" />
        </mxCell>
        <mxCell id="52c86dPeq3qlj9z_Wnzl-90" style="edgeStyle=orthogonalEdgeStyle;rounded=0;orthogonalLoop=1;jettySize=auto;html=1;" edge="1" parent="1" source="52c86dPeq3qlj9z_Wnzl-83" target="52c86dPeq3qlj9z_Wnzl-4">
          <mxGeometry relative="1" as="geometry" />
        </mxCell>
        <mxCell id="52c86dPeq3qlj9z_Wnzl-83" value="telefono" style="ellipse;whiteSpace=wrap;html=1;align=center;fillColor=#B5739D;" vertex="1" parent="1">
          <mxGeometry x="414" y="930" width="60" height="40" as="geometry" />
        </mxCell>
        <mxCell id="52c86dPeq3qlj9z_Wnzl-88" style="edgeStyle=orthogonalEdgeStyle;rounded=0;orthogonalLoop=1;jettySize=auto;html=1;entryX=1;entryY=0;entryDx=0;entryDy=0;" edge="1" parent="1" source="52c86dPeq3qlj9z_Wnzl-84" target="52c86dPeq3qlj9z_Wnzl-4">
          <mxGeometry relative="1" as="geometry" />
        </mxCell>
        <mxCell id="52c86dPeq3qlj9z_Wnzl-84" value="nombre" style="ellipse;whiteSpace=wrap;html=1;align=center;fillColor=#B5739D;" vertex="1" parent="1">
          <mxGeometry x="414" y="880" width="60" height="40" as="geometry" />
        </mxCell>
        <mxCell id="52c86dPeq3qlj9z_Wnzl-89" style="edgeStyle=orthogonalEdgeStyle;rounded=0;orthogonalLoop=1;jettySize=auto;html=1;entryX=1;entryY=1;entryDx=0;entryDy=0;" edge="1" parent="1" source="52c86dPeq3qlj9z_Wnzl-85" target="52c86dPeq3qlj9z_Wnzl-4">
          <mxGeometry relative="1" as="geometry" />
        </mxCell>
        <mxCell id="52c86dPeq3qlj9z_Wnzl-85" value="apellidos" style="ellipse;whiteSpace=wrap;html=1;align=center;fillColor=#B5739D;" vertex="1" parent="1">
          <mxGeometry x="414" y="980" width="60" height="40" as="geometry" />
        </mxCell>
        <mxCell id="52c86dPeq3qlj9z_Wnzl-99" style="edgeStyle=orthogonalEdgeStyle;rounded=0;orthogonalLoop=1;jettySize=auto;html=1;entryX=0.962;entryY=0.116;entryDx=0;entryDy=0;entryPerimeter=0;" edge="1" parent="1" source="52c86dPeq3qlj9z_Wnzl-91" target="52c86dPeq3qlj9z_Wnzl-3">
          <mxGeometry relative="1" as="geometry" />
        </mxCell>
        <mxCell id="52c86dPeq3qlj9z_Wnzl-91" value="titulo" style="ellipse;whiteSpace=wrap;html=1;align=center;fillColor=#7EA6E0;" vertex="1" parent="1">
          <mxGeometry x="777" y="610" width="50" height="30" as="geometry" />
        </mxCell>
        <mxCell id="52c86dPeq3qlj9z_Wnzl-101" style="edgeStyle=orthogonalEdgeStyle;rounded=0;orthogonalLoop=1;jettySize=auto;html=1;" edge="1" parent="1" source="52c86dPeq3qlj9z_Wnzl-92" target="52c86dPeq3qlj9z_Wnzl-3">
          <mxGeometry relative="1" as="geometry" />
        </mxCell>
        <mxCell id="52c86dPeq3qlj9z_Wnzl-92" value="periodicidad" style="ellipse;whiteSpace=wrap;html=1;align=center;fillColor=#7EA6E0;" vertex="1" parent="1">
          <mxGeometry x="777" y="660" width="50" height="30" as="geometry" />
        </mxCell>
        <mxCell id="52c86dPeq3qlj9z_Wnzl-97" style="edgeStyle=orthogonalEdgeStyle;rounded=0;orthogonalLoop=1;jettySize=auto;html=1;entryX=0.9;entryY=1;entryDx=0;entryDy=0;entryPerimeter=0;" edge="1" parent="1" source="52c86dPeq3qlj9z_Wnzl-95" target="52c86dPeq3qlj9z_Wnzl-3">
          <mxGeometry relative="1" as="geometry" />
        </mxCell>
        <mxCell id="52c86dPeq3qlj9z_Wnzl-95" value="tipo" style="ellipse;whiteSpace=wrap;html=1;align=center;fillColor=#7EA6E0;" vertex="1" parent="1">
          <mxGeometry x="777" y="700" width="50" height="30" as="geometry" />
        </mxCell>
        <mxCell id="52c86dPeq3qlj9z_Wnzl-110" style="edgeStyle=orthogonalEdgeStyle;rounded=0;orthogonalLoop=1;jettySize=auto;html=1;entryX=0.5;entryY=0;entryDx=0;entryDy=0;" edge="1" parent="1" source="52c86dPeq3qlj9z_Wnzl-106" target="52c86dPeq3qlj9z_Wnzl-41">
          <mxGeometry relative="1" as="geometry" />
        </mxCell>
        <mxCell id="52c86dPeq3qlj9z_Wnzl-106" value="telefono" style="ellipse;whiteSpace=wrap;html=1;align=center;fillColor=#D5E8D4;" vertex="1" parent="1">
          <mxGeometry x="484" y="380" width="60" height="40" as="geometry" />
        </mxCell>
        <mxCell id="52c86dPeq3qlj9z_Wnzl-109" style="edgeStyle=orthogonalEdgeStyle;rounded=0;orthogonalLoop=1;jettySize=auto;html=1;entryX=0.25;entryY=0;entryDx=0;entryDy=0;" edge="1" parent="1" source="52c86dPeq3qlj9z_Wnzl-107" target="52c86dPeq3qlj9z_Wnzl-41">
          <mxGeometry relative="1" as="geometry" />
        </mxCell>
        <mxCell id="52c86dPeq3qlj9z_Wnzl-107" value="nombre" style="ellipse;whiteSpace=wrap;html=1;align=center;fillColor=#D5E8D4;" vertex="1" parent="1">
          <mxGeometry x="414" y="380" width="60" height="40" as="geometry" />
        </mxCell>
        <mxCell id="52c86dPeq3qlj9z_Wnzl-111" style="edgeStyle=orthogonalEdgeStyle;rounded=0;orthogonalLoop=1;jettySize=auto;html=1;entryX=0.86;entryY=-0.062;entryDx=0;entryDy=0;entryPerimeter=0;" edge="1" parent="1" source="52c86dPeq3qlj9z_Wnzl-108" target="52c86dPeq3qlj9z_Wnzl-41">
          <mxGeometry relative="1" as="geometry" />
        </mxCell>
        <mxCell id="52c86dPeq3qlj9z_Wnzl-108" value="especialidad" style="ellipse;whiteSpace=wrap;html=1;align=center;fillColor=#D5E8D4;" vertex="1" parent="1">
          <mxGeometry x="640" y="360" width="60" height="40" as="geometry" />
        </mxCell>
        <mxCell id="52c86dPeq3qlj9z_Wnzl-113" style="edgeStyle=orthogonalEdgeStyle;rounded=0;orthogonalLoop=1;jettySize=auto;html=1;entryX=0.5;entryY=1;entryDx=0;entryDy=0;" edge="1" parent="1" source="52c86dPeq3qlj9z_Wnzl-112" target="52c86dPeq3qlj9z_Wnzl-41">
          <mxGeometry relative="1" as="geometry" />
        </mxCell>
        <mxCell id="52c86dPeq3qlj9z_Wnzl-112" value="NIF" style="ellipse;whiteSpace=wrap;html=1;align=center;fontStyle=4;fillColor=#D5E8D4;" vertex="1" parent="1">
          <mxGeometry x="477" y="555" width="66" height="30" as="geometry" />
        </mxCell>
        <mxCell id="52c86dPeq3qlj9z_Wnzl-115" style="edgeStyle=orthogonalEdgeStyle;rounded=0;orthogonalLoop=1;jettySize=auto;html=1;entryX=0.687;entryY=0.003;entryDx=0;entryDy=0;entryPerimeter=0;" edge="1" parent="1" source="52c86dPeq3qlj9z_Wnzl-114" target="52c86dPeq3qlj9z_Wnzl-41">
          <mxGeometry relative="1" as="geometry" />
        </mxCell>
        <mxCell id="52c86dPeq3qlj9z_Wnzl-114" value="apellidos" style="ellipse;whiteSpace=wrap;html=1;align=center;fillColor=#D5E8D4;" vertex="1" parent="1">
          <mxGeometry x="564" y="390" width="60" height="40" as="geometry" />
        </mxCell>
        <mxCell id="52c86dPeq3qlj9z_Wnzl-120" style="edgeStyle=orthogonalEdgeStyle;rounded=0;orthogonalLoop=1;jettySize=auto;html=1;exitX=0.5;exitY=0;exitDx=0;exitDy=0;entryX=0.25;entryY=1;entryDx=0;entryDy=0;" edge="1" parent="1" source="52c86dPeq3qlj9z_Wnzl-118" target="52c86dPeq3qlj9z_Wnzl-3">
          <mxGeometry relative="1" as="geometry" />
        </mxCell>
        <mxCell id="52c86dPeq3qlj9z_Wnzl-118" value="&lt;span style=&quot;border-bottom: 1px dotted&quot;&gt;NIF&lt;/span&gt;" style="ellipse;whiteSpace=wrap;html=1;align=center;fillColor=#D5E8D4;" vertex="1" parent="1">
          <mxGeometry x="645" y="700" width="50" height="30" as="geometry" />
        </mxCell>
      </root>
    </mxGraphModel>
  </diagram>
</mxfile>
